# Blender 4.3.0
# www.blender.org
mtllib cube.mtl
o Cube
v 20.408476 20.408476 -20.408476
v 20.408476 -20.408476 -20.408476
v 20.408476 20.408476 20.408476
v 20.408476 -20.408476 20.408476
v -20.408476 20.408476 -20.408476
v -20.408476 -20.408476 -20.408476
v -20.408476 20.408476 20.408476
v -20.408476 -20.408476 20.408476
vn -0.0000 -1.0000 -0.0000
vn -0.0000 -0.0000 1.0000
vn 1.0000 -0.0000 -0.0000
vn -0.0000 1.0000 -0.0000
vn -1.0000 -0.0000 -0.0000
vn -0.0000 -0.0000 -1.0000
vt 1.000000 0.960358
vt 0.000000 0.960358
vt 0.000000 0.039642
vt 1.000000 0.039642
vt 0.375000 0.750000
vt 0.625000 0.750000
vt 0.625000 1.000000
vt 0.375000 1.000000
vt 0.000000 0.039642
vt 1.000000 0.039642
vt 1.000000 0.960358
vt 0.000000 0.960358
vt 0.000000 0.960358
vt 0.000000 0.039642
vt 0.375000 0.250000
vt 0.625000 0.250000
vt 0.625000 0.500000
vt 0.375000 0.500000
s 0
usemtl Material
f 1/1/1 3/2/1 7/3/1 5/4/1
f 4/5/2 3/6/2 7/7/2 8/8/2
f 8/9/3 6/10/3 5/11/3 7/12/3
f 6/1/4 8/2/4 4/3/4 2/4/4
f 2/1/5 4/13/5 3/14/5 1/4/5
f 6/15/6 5/16/6 1/17/6 2/18/6
